<?xml version="1.0" encoding="UTF-8"?>
<svg width="854px" height="768px" viewBox="0 0 854 768" version="1.1" xmlns="http://www.w3.org/2000/svg" xmlns:xlink="http://www.w3.org/1999/xlink">
    <title>Shape</title>
    <g id="Page-1" stroke="none" stroke-width="1" fill="none" fill-rule="evenodd">
        <g id="Graphic" transform="translate(-85, -128)" fill="#FFFFFF">
            <path d="M512,426.666667 C550.156235,426.666667 577.64735,436.161422 602.108438,460.292715 C612.628301,470.670746 622.285838,483.465835 633.073284,500.621183 C641.444577,513.934107 650.006927,528.933444 664.537175,555.350917 C675.212626,574.649498 690.618849,589.818043 717.982633,609.871891 C722.679597,613.314112 739.560716,625.370234 742.611525,627.58629 C760.23116,640.384889 772.218921,650.215644 783.149731,661.69745 C797.605323,676.881712 808.212947,693.358868 814.619498,712.295283 L814.637528,712.288683 C814.712829,712.494403 814.787676,712.701195 814.850377,712.934391 C814.953643,713.175289 815.037136,713.427654 815.119893,713.680454 L815.098604,713.687423 C820.539147,729.177734 823.466667,750.309297 823.466667,768 C823.466667,840.227889 772.357049,896 704,896 C687.400972,896 669.993831,893.216925 649.688134,887.982823 C635.938115,884.438547 628.940824,882.279001 598.835229,872.631317 C584.501694,868.037972 575.748657,865.336953 566.733811,862.801666 C544.108803,856.438731 526.666095,853.333333 512,853.333333 C497.333905,853.333333 479.891197,856.438731 457.266189,862.801666 C448.251343,865.336953 439.498306,868.037972 425.164771,872.631317 C395.059176,882.279001 388.061885,884.438547 374.311866,887.982823 C354.006169,893.216925 336.599028,896 320,896 C251.746077,896 200.669949,840.348668 200.543637,768.290344 L200.531761,768.290425 C200.531314,768.224644 200.530907,768.158815 200.534697,768.088564 C200.530782,768.059899 200.530773,768.029951 200.530773,768 C200.441905,750.321382 203.330758,729.166343 208.787608,713.646215 L208.765695,713.639018 C208.846236,713.393834 208.927443,713.149112 209.027543,712.917313 C209.088287,712.690258 209.161161,712.488966 209.234472,712.288683 L209.253143,712.295517 C215.813362,692.944861 226.593654,676.501701 241.249331,661.856445 C252.015319,651.098113 263.427924,642.388367 280.639211,630.891019 L281.55045,630.283295 C281.628825,630.239665 300.10109,618.073563 305.078782,614.662831 C329.296595,598.068702 343.399371,584.439722 353.647012,565.913489 C368.41063,539.177919 377.203166,523.796207 385.957698,509.773721 C397.184114,491.791918 407.267919,478.044121 417.959995,466.742084 C443.848836,439.376336 473.650887,426.666667 512,426.666667 Z M512,512 C496.998167,512 489.646957,515.135067 479.949339,525.385916 C467.904594,538.117789 455.531976,557.93551 428.332909,607.190524 C418.59947,624.787177 406.586909,640.11406 392.238302,653.980612 C380.820824,665.014509 368.627114,674.562999 353.312739,685.056461 C347.649754,688.936758 328.745347,701.389437 328.790616,701.348086 C303.431922,718.238526 293.961739,727.713655 289.836971,740.270315 C289.688264,740.723013 289.531983,741.173188 289.368195,741.62065 C287.497357,746.7317 285.803252,758.914789 285.863118,767.709575 C285.863777,767.806382 285.864106,767.903191 285.864106,768 C285.864106,794.656479 300.531343,810.666667 320,810.666667 C328.295258,810.666667 339.073259,808.943467 353.012134,805.35051 C364.475493,802.395655 370.921542,800.406236 399.123229,791.368683 C414.365663,786.48407 423.91152,783.538402 434.163737,780.655124 C463.653885,772.361473 488.151843,768 512,768 C535.848157,768 560.346115,772.361473 589.836263,780.655124 C600.08848,783.538402 609.634337,786.48407 624.876771,791.368683 C653.078458,800.406236 659.524507,802.395655 670.987866,805.35051 C684.926741,808.943467 695.704742,810.666667 704,810.666667 C723.485169,810.666667 738.133333,794.682218 738.133333,768 C738.133333,759.04177 736.393635,746.783586 734.503805,741.62065 C734.33502,741.159537 734.174208,740.695544 734.021441,740.228879 C729.774368,727.255188 718.89927,715.831904 692.46107,696.627651 C689.841576,694.724896 672.7603,682.525826 667.540747,678.70062 C651.246989,666.759561 638.77484,656.566954 627.07043,645.042863 C612.10441,630.307412 599.733396,614.493534 589.864424,596.651857 C589.856027,596.636676 589.84764,596.621492 589.841822,596.605636 C589.831517,596.592262 589.823149,596.577068 589.814788,596.561867 C563.728267,549.131828 552.411345,531.134451 542.179562,521.040618 C535.078433,514.035229 529.185632,512 512,512 Z M179.925333,298.666667 C232.420414,298.666667 281.393753,343.576113 305.412117,405.495038 C318.902682,440.211105 323.220293,476.907232 317.578876,509.11579 C311.049053,546.396522 291.379857,576.667639 259.673221,590.345012 C259.626834,590.365022 259.580432,590.384943 259.532834,590.397342 C259.490971,590.423162 259.444499,590.442919 259.397973,590.462603 C248.602396,595.029962 237.106672,597.333333 225.408,597.333333 C172.912919,597.333333 123.939581,552.423887 99.921216,490.504962 C86.4306515,455.788895 82.1130399,419.092768 87.7544572,386.88421 C94.28428,349.603478 113.953477,319.332361 145.660113,305.654988 C145.751724,305.61547 145.843474,305.576272 145.93536,305.537397 C156.730937,300.970038 168.226662,298.666667 179.925333,298.666667 Z M843.973428,298.666665 C854.882606,298.651689 865.690304,300.688577 875.82583,304.68985 C876.678356,304.985421 877.519092,305.318044 878.349753,305.677691 C909.942827,319.356365 929.598269,349.564201 936.193007,386.765939 C941.903331,418.978581 937.666444,455.682198 924.216135,490.480878 C900.188341,552.424088 851.163563,597.333333 798.634667,597.333333 C786.936966,597.333333 775.362442,595.014173 764.578246,590.41626 L764.44697,590.36003 C732.703244,576.700138 712.97776,546.450583 706.421218,509.178712 C700.754522,476.965331 705.074274,440.255475 718.579772,405.515925 C742.397041,344.130077 790.671314,299.521754 842.695437,298.672311 C842.927605,298.66852 843.159801,298.666624 843.392,298.666624 L843.973428,298.666665 Z M179.925333,384 C179.668225,384 179.499752,384.020755 179.342731,384.068641 C179.229579,384.134126 179.086374,384.238964 178.88554,384.415964 C178.330446,384.905183 177.679001,385.669511 176.968057,386.763662 C174.813105,390.080158 172.941397,395.136748 171.808209,401.606456 C168.953221,417.90645 171.425776,438.921127 179.469468,459.620456 C186.226473,477.039891 195.927028,491.6509 206.554259,501.396265 C211.005882,505.478485 215.344243,508.440251 219.218352,510.227315 C221.979982,511.501211 224.072194,512 225.408,512 C225.665108,512 225.83358,511.979245 225.990603,511.931359 C226.103754,511.865874 226.24696,511.761036 226.447793,511.584036 C227.002887,511.094817 227.654332,510.330489 228.365276,509.236338 C230.520229,505.919842 232.391937,500.863252 233.525124,494.393544 C236.380113,478.09355 233.907557,457.078873 225.863865,436.379544 C219.10686,418.960109 209.406306,404.3491 198.779075,394.603735 C194.327451,390.521515 189.98909,387.559749 186.114982,385.772685 C183.353351,384.498789 181.261139,384 179.925333,384 Z M844.000537,383.999958 C839.998482,384.10632 832.982046,387.436998 824.999246,394.813584 C814.455534,404.556606 804.849312,419.077221 798.124543,436.409395 C790.073334,457.119152 787.601753,478.122995 790.464115,494.394621 C791.598905,500.845544 793.470995,505.884093 795.62673,509.189969 C796.33958,510.283145 796.994388,511.04877 797.555522,511.541692 C797.796355,511.75325 797.96374,511.869386 798.10011,511.939476 C798.208061,511.973573 798.380031,512 798.634667,512 C799.988807,512 802.097885,511.497845 804.873918,510.218893 C808.758529,508.429205 813.105378,505.465082 817.563593,501.381126 C828.200872,491.636825 837.904938,477.031098 844.639997,459.668325 C852.636022,438.980934 855.061176,417.972131 852.169659,401.660728 C851.021076,395.181427 849.134761,390.109457 846.964751,386.774435 C846.245555,385.669126 845.58532,384.89458 845.021979,384.397564 C844.859596,384.254299 844.734595,384.157656 844.633685,384.091183 C844.456241,384.030068 844.264851,383.999671 844.032,383.999958 L844.000537,383.999958 Z M385.066667,128 C417.0947,128 446.865813,144.012773 469.582551,170.501996 C490.120106,194.450146 504.239798,226.214005 509.663152,260.865085 C511.158825,270.527274 511.938107,280.169055 512.014735,289.672303 C512.094806,280.156513 512.88078,270.501741 514.385571,260.826077 C519.771857,226.241855 533.866547,194.472933 554.386594,170.519277 C577.087829,144.019456 606.855738,127.9999 638.806865,127.999982 C643.062467,127.991624 647.313487,128.277394 651.529288,128.85743 C651.543372,128.857294 651.557183,128.859168 651.570481,128.862403 C651.598817,128.864837 651.626991,128.868725 651.655163,128.872627 C686.569904,133.648842 714.60367,156.991481 730.903719,190.633279 C745.292055,220.329479 750.009859,256.877561 744.295193,293.726199 C744.29519,293.749487 744.291556,293.773115 744.2879,293.796745 C744.286974,293.802736 744.286047,293.808728 744.28455,293.814562 C744.284269,293.820187 744.283389,293.825845 744.282509,293.831503 C744.279415,293.851399 744.276308,293.87129 744.270374,293.889944 C738.922665,328.374934 724.831733,360.117858 704.319101,384.075134 C681.603056,410.605836 651.819521,426.666667 619.776,426.666667 C615.640366,426.666667 611.527154,426.381027 607.379028,425.843307 C607.298357,425.83285 607.217717,425.822162 607.137107,425.811243 C572.164521,421.074216 544.082691,397.715832 527.762948,364.033387 C517.558717,342.972796 512.218444,318.465935 512.013099,292.846534 C511.798076,318.464286 506.451952,342.972791 496.247719,364.033387 C480.368676,396.806268 453.365914,419.807844 419.694437,425.33536 C416.340707,426.02204 413.147253,426.387534 409.877386,426.553287 C407.963155,426.650322 406.715716,426.666475 404.267047,426.666647 C404.252868,426.666666 404.238455,426.666667 404.224,426.666667 C404.200629,426.666667 404.177262,426.666648 404.154812,426.663173 C372.158133,426.629113 342.435664,410.582127 319.733446,384.086669 C299.220163,360.145888 285.087983,328.412473 279.646654,293.924048 L279.627515,293.801582 C273.919319,256.926103 278.645699,220.347874 293.042948,190.633279 C308.92199,157.860399 335.924753,134.858823 369.596229,129.331307 C372.94996,128.644627 376.143413,128.279133 379.41328,128.113379 C381.339013,128.015762 382.589916,128 385.066667,128 Z M384.413814,213.333822 C384.224439,213.362997 384.034736,213.390022 383.84485,213.415769 C379.593466,213.992228 374.488362,218.241513 369.837052,227.841387 C363.284381,241.365496 360.818919,260.409091 363.949164,280.6876 C366.991854,299.917375 374.582902,316.951112 384.533221,328.563998 C392.130749,337.430973 399.366139,341.333289 404.266594,341.33333 C404.522917,341.333319 404.719099,341.333182 404.876853,341.332844 C405.066225,341.30367 405.255929,341.276645 405.445817,341.250898 C409.697201,340.674439 414.802305,336.425153 419.453614,326.825279 C426.012816,313.287692 428.476658,294.219611 425.345192,273.989653 C422.32385,254.685805 414.749591,237.646645 404.806782,226.052671 C397.233069,217.22122 390.00467,213.333333 385.066667,213.333333 C384.789969,213.333333 384.580493,213.333466 384.413814,213.333822 Z M638.890667,213.333233 C633.960057,213.333233 626.74902,217.213842 619.192073,226.03529 C609.265796,237.622526 601.70854,254.656308 598.703843,273.948836 C595.547968,294.240817 598.002661,313.29762 604.557052,326.825279 C609.194523,336.396592 614.290468,340.649715 618.558353,341.243991 C619.090814,341.307604 619.493326,341.333333 619.776,341.333333 C624.679618,341.333333 631.918372,337.429821 639.499566,328.575533 C649.438255,316.96786 656.988103,299.949305 659.957433,280.752589 C659.95834,280.746726 659.959248,280.740863 659.960998,280.735347 C659.961002,280.729555 659.961912,280.723693 659.962824,280.717831 C663.118699,260.42585 660.664006,241.369047 654.109614,227.841387 C649.460482,218.246008 644.350568,213.995596 640.075774,213.416576 L639.95017,213.399373 C639.627207,213.35465 639.30118,213.332509 638.890667,213.333233 Z" id="Shape"></path>
        </g>
    </g>
</svg>